<?xml version="1.0" encoding="UTF-8"?>
<svg version="1.1" viewBox="0 0 2048 1174" width="1280" height="1280" xmlns="http://www.w3.org/2000/svg">
<path transform="translate(0)" d="m0 0h2048v1174h-2048z" fill="none"/>
<path transform="translate(589,511)" d="m0 0 7 1 15 12 19 12 23 13 27 13 32 13 31 11 30 9 38 10 47 10 47 8 45 6 53 5 53 3 51 1h17l42-1 40-2 49-4 44-5 40-6 38-7 41-9 34-9 36-11 38-14 27-12 21-10 23-13 18-12 16-12 8 1 27 9 34 13 32 14 19 9 23 13 20 12 17 12 14 11 12 11 14 14 11 15 8 14 7 16 4 18v23l-3 15-6 16-9 16-9 12-12 14-8 8-11 9-15 12-18 12-22 13-27 14-28 13-33 13-28 10-34 11-44 12-41 10-49 10-45 8-48 7-50 6-54 5-63 4-52 2h-115l-75-3-56-4-59-6-54-7-55-9-60-12-42-10-34-9-30-9-44-15-35-14-33-15-19-10-17-10-19-12-16-12-13-11-10-9-8-8-9-11-12-18-7-15-5-18-1-7v-19l4-18 4-11 10-19 12-16 11-12 8-8 11-9 17-13 23-15 23-13 32-16 31-13 35-13z" fill="#A67B5B"/>
<path transform="translate(1058,222)" d="m0 0h108l40 2 49 4 50 6 50 8 48 10 39 10 39 12 33 12 30 13 22 11 19 11 18 12 12 9 10 9 8 7 12 14 9 15 6 15 2 11v13l-4 16-8 17-8 11-12 14-11 10-20 15-19 12-22 12-21 10-32 13-31 11-37 11-36 9-38 8-47 8-46 6-42 4-46 3-34 1h-70l-35-1-58-4-46-5-49-7-48-9-42-10-36-10-36-12-28-11-24-11-22-11-20-12-17-12-11-9-10-9-10-10-11-15-8-17-3-11-1-7v-9l3-15 6-15 7-11 8-10 9-10 11-10 20-15 21-13 27-14 19-9 33-13 36-12 35-10 43-10 35-7 37-6 47-6 43-4z" fill="#A67B5B"/>
<path transform="translate(1090,200)" d="m0 0h54l52 2 34 2 42 4 38 5 42 7 45 9 48 12 30 9 38 13 27 11 28 13 21 11 19 12 14 10 13 11 8 7 12 12 11 15 9 16 7 20 2 9v18l-4 16-6 15-9 16-9 12-11 12-9 8-2 4-6 3-17 13-21 13-18 10-23 11-28 12-42 15-41 12-46 11-41 8-37 6-39 5-42 4-43 3-24 1-46 1h-17l-47-1-53-3-53-5-52-7-45-8-42-9-38-10-33-10-31-11-31-13-31-15-27-16-14-10-12-9-3-2-2-4-9-7-7-8-10-11-9-14-6-13-5-15-2-12v-14l4-19 6-15 8-14 10-13 22-22 14-11 16-11 18-11 20-11 24-11 27-11 38-13 34-10 40-10 44-9 43-7 46-6 43-4 30-2 23-1zm-32 22-55 3-51 5-46 6-41 7-42 9-36 9-30 9-33 11-32 13-29 14-17 9-22 14-14 11-14 12-7 7-13 17-8 16-4 14-1 7v9l3 15 5 12 6 11 11 14 15 15 14 11 14 10 20 12 23 12 21 10 33 13 36 12 36 10 42 10 48 9 49 7 46 5 58 4 35 1h70l34-1 46-3 51-5 44-6 45-8 41-9 35-9 39-12 30-11 28-12 25-12 19-11 18-12 13-10 10-9 8-7 9-11 9-14 6-13 4-16v-13l-3-14-7-16-8-12-12-14-13-12-13-10-18-12-17-10-27-14-25-11-35-13-35-11-38-10-41-9-39-7-49-7-49-5-44-3-23-1z" fill="#FFF8E2"/>
</svg>
