<?xml version="1.0" encoding="UTF-8"?>
<svg version="1.1"  fill="#FFF8E1" viewBox="0 0 2048 2048" width="1280" height="1280" xmlns="http://www.w3.org/2000/svg">
<path transform="translate(416,577)" d="m0 0h375l10 4 7 6 5 8 2 6v12l-4 10-8 9-9 4-4 1-17 1h-344l-14 2-6 4h-2v2h-2l-2 5-6 9-24 40-10 16-12 20-17 28-12 20-11 18-17 28-9 15-2 3h1481l-10-18-13-21-12-20-68-112-12-20-7-10-6-5-7-3-30-1-343-1-9-4-8-7-5-8-2-8 1-10 3-8 9-10 8-4 3-1h374l16 3 13 5 11 6 13 10 10 11 9 14 17 28 12 20 14 23 34 56 12 20 28 46 17 28 10 17 4 10 1 11v107l-1 18-3 19-5 16-5 12-9 17-14 18-12 12-18 13-11 6-1 7-1 819h126l10 5 7 7 4 7 1 4v14l-4 9-7 8-10 5-6 1h-1739l-11-4-9-9-4-8-1-4v-9l4-12 7-8 12-6h125l-1-825-15-9-16-13-12-12-10-13-10-17-7-17-4-13-3-16-1-12v-127l4-11 85-140 12-20 17-28 15-25 17-28 9-13 2-3h2l2-4 9-8 13-8 8-4 12-4zm-158 335v80l1 17 4 15 8 16 10 13 10 9 15 9 14 5 9 2 13 1 18-2 17-6 15-9 12-11 8-10 8-16 4-16 1-12v-85zm228 0v94l3 14 7 16 7 11 7 8h2v2l14 10 12 6 13 4 19 2 17-2 15-5 13-7 9-7 5-4 9-11 6-11 5-12 3-15v-93zm227 0v89l2 14 4 12 8 15 8 10 7 7 13 9 13 6 17 4h24l13-3 14-6 12-8 10-9 8-10 6-10 5-14 2-9 1-13v-77l-1-7zm228 0v94l3 15 7 15 7 11 4 5h2l2 4 13 10 14 7 13 4 6 1h24l16-4 16-8 11-8 6-5 9-12 8-15 4-15 1-7v-92zm227 0v91l3 16 7 17 9 13 11 11 14 9 11 5 16 4h25l15-4 12-5 12-8 10-9 10-13 7-15 3-11 2-17-1-84zm227 0v88l2 15 4 12 6 12 9 12 8 8 10 7 16 8 16 4 12 1 18-2 13-4 14-7 12-9 7-7 10-14 7-17 2-10 1-10v-87zm228 0v95l4 16 8 16 8 11 10 10 14 9 11 5 16 4 14 1 17-2 17-6 16-10 11-10 8-11 7-14 4-14 1-6v-94zm-1168 172-9 10v2l-4 2v2l-4 2-7 6-10 7-16 9-14 6-19 5-17 3-14 1-4 2v808h792l1-30v-402l1-73 3-24 6-25 9-24 8-17 13-21 10-13 7-8 9-10 15-14 14-10 15-10 17-9 19-8 15-5 23-5 14-2 13-1h22l21 2 25 5 16 5 20 8 21 11 15 10 14 11 12 11 12 12 11 14 12 18 9 16 7 16 8 24 5 23 2 18 1 25v417l1 65h134l1-1 1-808-3-1-21-2-23-5-16-6-16-8-17-12-14-13-7-9h-3l-9 11-8 8-19 14-17 9-17 6-16 4-11 2h-32l-20-4-18-6-16-8-14-9-11-9-14-14-3-4-3 1-9 11-12 11-18 12-16 8-14 5-21 5-6 1h-32l-21-4-17-6-16-8-10-6-12-9-18-18-2-3-4 2-7 8v2l-4 2v2l-4 2-12 10-13 8-14 7-21 7-21 4h-31l-21-4-17-6-16-8-12-7-11-9-12-11-8-9h-2l-8 10-11 11-17 12-14 8-19 7-22 5-6 1h-32l-20-4-18-6-21-11-14-10-13-12-10-11-4 2-9 11-10 9-16 11-10 6-20 8-19 5-12 2h-31l-20-4-18-6-16-8-12-7-11-9-12-11-7-9zm883 214-20 3-21 6-16 7-16 9-14 10-17 16-11 13-10 15-8 16-6 15-4 14-3 14-1 10v503h322l1-1v-499l-2-18-5-21-8-20-9-17-10-14-11-12-11-11-13-10-19-11-18-8-21-6-22-3z"/>
<path transform="translate(1e3 39)" d="m0 0h41l25 3 23 5 20 6 25 10 23 12 17 11 12 9 11 9 12 11 13 13 9 11 10 13 10 15 10 18 10 21 7 20 6 21 4 21 2 20v34l-3 21-6 25-12 36-11 27-13 28-14 29-10 19-13 24-14 24-15 26-13 21-14 23-8 12-11 17-13 20-12 18-33 48-13 18-7 10-12 16h-2v2l-9 5-8 2h-9l-10-4-8-7-10-13-24-34-13-19-15-22-10-15-13-20-16-25-12-19-16-26-15-25-16-28-14-25-18-35-16-33-12-28-11-30-8-27-6-31-1-11v-20l2-23 5-27 7-24 8-21 8-16 8-15 10-15 8-11 9-11 11-12 5-6 8-7 15-13 20-14 19-11 16-8 22-9 24-7 26-5zm16 60-25 2-24 5-16 5-15 6-16 8-17 10-14 11-10 9-8 7-10 11-10 13-11 17-11 21-8 21-6 25-2 11-1 12v26l5 26 7 22 7 20 12 29 13 27 8 16 17 33 14 24 10 18 9 15 16 26 13 21 16 25 29 43 15 22 11 16 6 8 5-5 8-11 8-12 14-20 27-41 11-17 14-22 16-26 17-29 12-21 16-29 15-29 11-23 14-32 8-21 9-31 4-21v-30l-4-26-5-19-8-21-8-16-9-16-13-17-12-13-11-11-14-11-15-10-16-9-18-8-21-7-12-3-22-3z"/>
<path transform="translate(544,1371)" d="m0 0h375l10 3 8 6 6 8 3 12v264l-1 12h21l10 3 8 6 6 9 2 6v13l-6 12-8 7-11 4-23 1h-435l-12-1-9-4-8-7-5-9-2-8 1-9 4-9 7-8 9-5 4-1h22v-280l4-10 5-7 9-6zm38 60-1 1-1 244h304l1-2v-242l-1-1z"/>
<path transform="translate(1008,169)" d="m0 0h31l17 3 17 5 19 9 15 10 13 11 8 8 13 17 9 16 8 21 5 24v30l-4 21-5 15-10 21-7 10-8 10-7 8h-2v2l-11 9-15 10-21 10-21 6-11 2-11 1h-15l-21-3-14-4-15-6-15-8-11-8-11-9-8-8-11-14-8-13-7-14-6-18-3-15-1-8v-23l3-19 5-17 8-18 10-16 9-11 9-10h2v-2l13-10 14-9 15-7 15-5zm5 61-14 3-12 5-12 8-11 10-8 11-8 18-3 14v19l4 17 8 16 8 10 9 9 11 7 12 6 18 4h18l14-3 16-7 11-8 9-8 8-11 7-14 4-16v-23l-4-16-8-16-8-10-8-8-14-9-12-5-14-3z"/>
<path transform="translate(1444,1608)" d="m0 0h9l8 2 8 5 7 8 3 8 1 7v54l-2 13-6 9-8 7-10 3h-11l-10-4-7-6-5-9-2-7v-64l3-10 7-9 8-5z"/>
</svg>
